<?xml version="1.0" encoding="UTF-8"?>
<svg id="Capa_2" data-name="Capa 2" xmlns="http://www.w3.org/2000/svg" version="1.1" viewBox="0 0 463.3 458.3">
  <defs>
    <style>
      .cls-1 {
        fill: #af9473;
        stroke-width: 0px;
      }
    </style>
  </defs>
  <path class="cls-1" d="M189.9,277.6c7.1,3.9,15.9,6.3,26.3,7.2v15c0,1.4.4,2.6,1.3,3.5.9.9,2.1,1.4,3.6,1.4h8.1c1.4,0,2.6-.5,3.5-1.4.9-.9,1.4-2.1,1.4-3.5v-14.8c9.8-.9,18.4-3.1,25.6-6.6,7.2-3.6,12.8-8.4,16.7-14.3,3.9-6,5.9-13.1,5.9-21.2s-1.8-14.8-5.2-20c-3.5-5.2-8.9-9.5-16.1-13-7.3-3.5-16.6-6.8-28-10-9.4-2.7-17-5.3-22.9-7.7-5.9-2.4-10.1-5.2-12.8-8.5-2.7-3.2-4.1-7.2-4.1-12.1,0-7.6,2.9-13.1,8.7-16.7,5.8-3.6,13.3-5.3,22.6-5.3s16.5,2,22.2,6,9,8.9,9.8,14.8c.6,1.6,1.4,2.6,2.5,3.2,1.1.6,2.1.9,3.1.9h11.3c1.6,0,2.7-.5,3.4-1.4.7-.9,1.1-1.9,1.1-2.9-.1-5.1-1.9-10.4-5.1-15.8-3.3-5.4-8.1-10.2-14.5-14.3-6.4-4.1-14.4-6.8-24-7.9v-15c0-1.4-.5-2.6-1.4-3.5s-2.1-1.4-3.5-1.4h-8.1c-1.6,0-2.8.5-3.6,1.4s-1.3,2.1-1.3,3.5v14.8c-14.1,1.3-25,5.7-32.7,13.2s-11.6,16.4-11.6,26.8,1.7,14.8,5,20.1c3.4,5.3,8.4,9.7,15.3,13.3,6.8,3.6,15.5,6.9,25.9,9.8,10,2.9,18.1,5.5,24.4,7.9,6.3,2.4,10.9,5.2,14,8.2,3.1,3.1,4.6,7.1,4.6,12.1,0,7.3-2.9,13.1-8.7,17.4-5.8,4.4-14.8,6.5-27.1,6.5s-14.5-1.1-19.6-3.3-8.9-5-11.6-8.3c-2.7-3.3-4.5-6.7-5.4-10.2-.3-1.1-.9-2.1-1.7-3-.9-.9-2.1-1.3-3.9-1.3h-10.9c-1.3,0-2.4.5-3.3,1.4s-1.4,2-1.4,3.1c.3,6.3,2.3,12.2,6,17.7s9.1,10.3,16.3,14.2h0Z"/>
  <path class="cls-1" d="M413.6,157.2v-81.5h-99.6L248,12.6C239,3.9,227.1-.5,214.6,0c-12.5.6-23.9,6.1-32.1,15.5l-52.5,60.2H48.4v81.6L0,206.4v251.9h463.3v-252l-49.7-49.1h0ZM32.4,208.8l16-16.2v27.2l-16-11ZM164.1,328.9L24.8,422.7v-189.1l139.3,95.4ZM189.9,341.4h65.7l151.2,92.1H53l136.9-92.1h0ZM282.8,329l155.7-95.4v190.3l-155.7-94.9h0ZM431,209.2l-17.4,10.7v-27.8l17.4,17.2ZM201.2,31.8c3.7-4.3,8.9-6.8,14.5-7,5.7-.3,11,1.8,15.1,5.7l47.3,45.3h-115.2l38.3-43.9h0ZM73.2,100.5h315.6v134.5l-133.2,81.6h-65.7l-116.8-79.9V100.5Z"/>
</svg>