<?xml version="1.0" encoding="UTF-8"?>
<svg id="Capa_2" data-name="Capa 2" xmlns="http://www.w3.org/2000/svg" version="1.1" viewBox="0 0 639.5 365">
  <defs>
    <style>
      .cls-1 {
        fill: #af9473;
        stroke-width: 0px;
      }
    </style>
  </defs>
  <path class="cls-1" d="M180.3,358.4H41.4C16.7,358.4,0,341.8,0,317.2c0-81.7,0-163.4,0-245S11.9,36.6,31.9,31.8c13.5-3.2,27-6.5,40.5-9.8,1.4-.3,2.7-1.2,3.9-2,8.9-5.9,17.6-11.9,26.6-17.6,2.2-1.4,5.1-2.3,7.7-2.3,46.5-.2,93-.2,139.5-.1,2.6,0,5.3,1.3,7.7,2.4,2,.9,4,2.3,5.7,3.8,16.6,14.6,37.2,19.5,58.1,23.8,13,2.6,24.9,7,32.5,18.9,4.2,6.5,6.6,13.6,6.6,21.3,0,83.2,0,166.3,0,249.4,0,21.7-17.3,38.6-39.3,38.7-47,.1-93.9,0-140.9,0h0c0,0,0,0,0,0ZM180.3,117.4c-1.4,1.2-2.7,2.3-4,3.4-20.2,18.1-40.3,36.2-60.5,54.2-4.6,4.1-8.5,3.1-9.9-2.6-8.1-33.8-16.2-67.6-24.3-101.4-2.2-9.2-4.5-18.4-6.9-27.9-5.7,1.4-11.1,2.6-16.5,3.9-5.7,1.4-11.3,2.8-17,4.4-12.8,3.5-20.5,13.3-20.5,26.7,0,77.5,0,155,0,232.5,0,16.8,11.1,27.8,27.9,27.8,87.4,0,174.7,0,262,0,18,0,29-11.2,29-29.2V114.3c0-12.2.1-24.3,0-36.5-.2-12-5.8-21.1-17-25-12-4.2-24.5-6.6-37.2-9.9-2.4,10.6-4.5,20.6-7,30.6-7.9,32.9-15.9,65.8-23.9,98.6-1.5,6-5.4,7.4-10,3.2-9.7-8.6-19.3-17.3-28.9-25.9-11.8-10.6-23.5-21.2-35.5-32h0ZM250.3,23.7c-18.9,26.3-37.5,52.2-56.2,78.2,18.1,16.2,35.7,32.1,53.7,48.2.4-1.3.7-2,.9-2.8,3-12.5,6.1-24.9,9.1-37.4,5.3-22,10.5-44,15.6-66.1.4-1.6-.4-4.4-1.6-5.3-6.9-5.1-14-9.7-21.4-14.8h0ZM111.7,153.4c19.3-17.3,37.8-33.9,56.5-50.7-19.8-27.8-39.3-55-58.8-82.2-6.7,4.4-12.8,8.5-19,12.6-4.1,2.7-5.6,6.5-4.7,11.4.4,1.8.8,3.7,1.3,5.5,5.2,21.6,10.3,43.2,15.4,64.9,3,12.5,6,25.1,9.2,38.5h0ZM127.8,16.5c17.7,24.8,34.9,48.9,52.3,73.3,17.7-24.6,34.9-48.7,52.6-73.3,0,0-104.9,0-104.9,0Z"/>
  <path class="cls-1" d="M420.9,240.5c-.8,10.5-2,21-2.3,31.6-.7,20.2-1,40.4-1.5,60.5-.1,4.4-1.1,5.5-5.6,5.5-4.9,0-9.8,0-14.8,0-4.7,0-5.5-1-5.8-5.7-1.2-24.7-1.9-49.4-3.9-74-2.6-31.4-10.6-61.6-22.9-90.6-6.6-15.4-4.7-31,1.4-46.1,7.8-19.1,21.1-33.9,38.4-45,10.5-6.7,17.1-6.5,27,.9,13.6,10.1,23.7,23.4,33.1,37.2,20.2,29.5,36,61.2,48.4,94.7,4.6,12.4,9.4,24.6,17.2,35.5,8.7,12.3,21,20,33.7,27.4,19.1,11.1,38.3,22,57,33.6,5.6,3.4,10.7,8.4,14.4,13.8,9.2,13,4.1,29.6-11,34.1-12.5,3.8-25.7,6.1-38.7,7.6-29.6,3.5-59.4,4.4-89.1,1.9-15.6-1.3-30.3-5.8-41.2-18.1-8.5-9.6-12.5-21.3-14.8-33.6-3-15.2-5.3-30.6-8.8-45.7-2-8.8-5.7-17.3-8.6-26-.6.1-1.2.2-1.8.3h0ZM418.3,99.2c-1.1.6-1.8.9-2.4,1.4-12.4,8.8-22.1,19.9-28.2,33.8-4.8,11.2-6.6,22.8-2.4,34.7,2.8,7.7,8.9,13.1,14.3,18.8,8.9,9.3,18.5,18.1,26.4,28.2,13.3,16.9,19.5,37.2,23.5,58,2.2,11.2,3.7,22.5,6.3,33.6,3.2,13.3,10.3,24.1,23.9,28.8,7,2.4,14.5,4,21.9,4.5,27,2.1,53.9.8,80.7-2.8,9.2-1.2,18.2-3.8,27.2-6.2,4.5-1.2,6.4-4.8,6.8-9.4.4-5.1-1.3-9.3-4.9-12.7-2.3-2.2-4.7-4.5-7.4-6.1-14.1-8.5-28.2-16.9-42.5-25.1-.8-.5-2.7,0-3.7.7-6,3.6-11.5,8.2-17.8,11.1-27.7,12.5-55.6,3.4-69.4-22.2-7.2-13.3-10.4-27.8-13.4-42.3-5.1-24.8-12.1-48.9-21.6-72.4-7-17.5-15.2-34.6-17.3-54.2h0ZM435.3,108c.2,3,0,5.2.6,7.2,3.1,10,5.8,20.2,9.8,29.9,9.7,23.4,17.3,47.3,22.2,72.1,2,10,4.5,20,9,29.2,5.3,10.8,13.2,18.7,25.4,21.1,13.9,2.7,23.3-1.1,34.1-9.4.5-.4-.3-.3.1-.8-.4-.3-2-1.1-2.2-1.2-.8-.5-1.8-2-2.6-2.5-11.5-6.5-16.2-14.7-22.4-26.6-3.6-7.1-6.8-14.5-9.6-22-9.5-25.3-21.6-49.1-37.2-71.1-6-8.4-12.3-16.6-20.8-22.7-1.7-1.2-3.8-1.9-6.4-3.2h0ZM383.1,190.6c-.3.2-.7.5-1,.8.3,1.1.6,2.2.9,3.2,3,12.2,6.7,24.2,8.9,36.5,5.4,30.1,6.8,60.6,7.3,91.1.1,5.6,3,8.1,8.7,7.5.2,0,.4-.3,1.1-.7,0-3.3,0-6.9,0-10.5.1-26.8.2-53.6,4.2-80.1,1.2-8,1.3-14.7-4.8-20.8-8.7-8.7-16.9-17.9-25.3-26.9h0Z"/>
  <path class="cls-1" d="M179.2,211c-3.2,0-5.8-2.7-5.7-5.9,0-3.2,2.6-5.7,5.9-5.7,3.4,0,6.2,2.8,6,6.1-.2,3.1-2.9,5.6-6.1,5.5h0Z"/>
  <path class="cls-1" d="M179.4,251.2c3,0,5.8,2.6,5.9,5.7.1,3-2.5,5.7-5.7,5.9-3.5.1-6.1-2.4-6.1-5.8,0-3.1,2.7-5.7,5.8-5.8h0Z"/>
  <path class="cls-1" d="M185.2,309c0,3.2-2.5,5.5-5.9,5.5-3.4,0-5.8-2.4-5.7-5.7,0-3.2,2.6-5.6,5.9-5.6,3.2,0,5.8,2.6,5.8,5.8Z"/>
</svg>