<?xml version="1.0" encoding="UTF-8"?><svg id="Capa_1" xmlns="http://www.w3.org/2000/svg" viewBox="0 0 428.37 217.39"><defs><style>.cls-1{fill:#ae9472;stroke-width:0px;}.cls-2{opacity:.36;}</style></defs><g class="cls-2"><path class="cls-1" d="M166.12,113.46c0-23.29-16.37-35.28-41.28-34.59-11.53.23-20.52,2.77-25.14,3.69l-2.31-1.61,9.22-55.58,1.84-10.84h35.51c20.52,0,28.6-5.3,32.52-14.53l2.31.92c-5.53,12.68-14.3,24.44-41.28,24.44h-28.13l-7.38,46.35c8.76-2.77,17.76-4.15,29.06-4.15,35.05-.23,49.35,20.52,49.35,41.97,0,32.28-31.13,64.11-86.02,98.47l-1.38-2.77c49.81-30.9,73.1-65.03,73.1-91.78Z"/><path class="cls-1" d="M200.71,95.01c0-48.89,31.13-82.1,67.34-82.1,33.44,0,70.1,27.9,70.1,83.25,0,48.89-31.13,82.1-67.34,82.1-33.44,0-70.1-27.9-70.1-83.25ZM277.5,173.88c32.52,0,47.04-28.13,47.5-63.88.46-47.74-25.83-92.7-62.49-92.7-33.67,0-48.2,28.13-48.66,63.88-.46,47.74,25.83,92.7,63.65,92.7Z"/></g><path class="cls-1" d="M11.23,150.66c-1.02-.46-.97-1.19-.79-2.16l.07-.37c.78-5.24,2.25-10.22,3.83-15.28,1.78-5.73.51-12.13-.62-17.78-1.58-7.95-5.58-15.72-12.21-23.77-1.1-1.34-1.57-2.27-1.51-3.02.06-.77.68-1.41,2.02-2.07,5.04-2.51,10.59-4.13,17.38-5.78,3.08-.75,6.27-1.32,9.81-1.93,1.12-.2,1.51-1.04,1.81-1.89l.08-.25c.17-.54.44-1.34.98-1.39l.28.04c.45.17.91.82,1.1,1.22.06.14.38,1.28.38,1.44l.26.27,2.45-.18c4.21-.32,8.56-.65,12.96-.54l1.7.04c5.95.14,12.11.28,18.39,1.8,2.06.5,3.45,1.23,3.54,3.15.03.62-.27,1.33-.99,1.39-.31,0-.49-.04-.62-.15-.28-.23-.39-.73-.47-1.19-.23-1.38-1.38-1.5-2.15-1.58-.18-.02-.36-.04-.52-.07-6.42-1.36-12.71-1.47-18.79-1.58-4.13-.07-8.4.08-12.69.46-.69.06-1.38.13-2.06.2-1.3.13-2.19.49-2.6,1.84-6.29,20.5-11.31,37.69-15.79,54.11-.45,1.63-.8,3.33-1.14,4.97-.6,2.9-1.23,5.9-2.38,8.61-.07.15-.12.33-.17.5-.17.52-.33,1.06-.82,1.1-.19.02-.43-.04-.72-.17ZM27.87,80.6c-.79.18-1.43.33-2.1.43-6.55,1.01-13.32,2.88-21.33,5.9-1.83.69-2.71,1.1-2.82,1.83-.12.76.65,1.8,2.01,3.57,4.85,6.29,8.2,12.64,10.23,19.41.63,2.09,1.09,4.21,1.54,6.26.33,1.51.66,3.03,1.06,4.56l.4.1,2.71-9.16c3.17-10.72,6.45-21.8,9.97-32.92l.12-.37-1.8.4Z"/><path class="cls-1" d="M44.06,121.54c.05.51-.73,1-1.02,1.29-1.11,1.12-2.25,2.21-3.46,3.24-2.46,2.08-5.22,3.87-8.47,4.99-1.37.48-2.85.86-4.49-.34-1.66-1.22-1.74-2.79-1.5-4.14.85-4.84,2.8-9.1,5.66-12.85.35-.46.74-1.23,1.71-.58,1,.67.4,1.3.14,1.81-1.88,3.67-3.77,7.33-5.02,11.34-.33,1.06-1.23,2.36.07,3.45,1.38,1.16,2.98.48,4.2.07,2.59-.87,4.73-2.38,6.65-4.05.59-.51,4.69-5.1,5.34-4.66.1.07.17.22.19.44ZM32.93,109.53c-.46-1.35.19-1.91,1.38-2.09.82-.13,1.5.14,1.9,1.21.18,1.12-.57,1.63-1.69,1.84-.75.14-1.31-.11-1.6-.95Z"/><path class="cls-1" d="M71.52,101.83c.04.2.01.4-.48.44-.22.02-.47,0-.7-.01h-.23c-3.84-.19-7.56.1-11.05.41l-2.63.23c-.91.08-1.82.16-2.73.23h0c-1.09.1-1.82.34-2.19,1.25l-.75,1.84c-3.74,9.13-7.6,18.58-9.25,28.9-.66,4.12-.8,7.61-.44,10.96.01.13.02.27.03.4.04.57.07,1.17.53,1.59.32.29.8.45,1.45.47.11,0,.23.05.33.13.14.11.24.29.28.47.1.5-.23.65-.52.68h-.05c-1.52.14-2.53-.48-3.08-1.88-.59-1.47-.58-2.9-.58-4.29v-.44c-.01-9.4,2.66-17.93,5.24-26.17l.22-.72c.84-2.68,1.88-5.33,2.88-7.88.48-1.22.96-2.45,1.42-3.68.14-.35.28-.71-.41-1.62l-.08-.1h-.11c-1.56.15-3.13.27-4.72.4-1.61.13-3.24.26-4.87.4-2.64.23-4.78.46-6.75.72-.83.11-1.67.19-2.52.27-2.14.2-4.35.41-6.32,1.11-.23.08-.48.16-.74.19-.25.02-.46-.02-.61-.12-.14-.09-.25-.25-.33-.47-.12-.34,0-.48.45-.51.11,0,.68-.03.68-.03l.16-.02c3.84-.7,7.77-1.09,10.77-1.36,1.6-.14,3.21-.27,4.81-.39,1.61-.13,3.21-.25,4.81-.39,1.51-.13,3.02-.28,4.53-.45,1.48-.17,2.58-.58,3.15-2.06,1.23-3.2,2.94-6.21,5.25-9.22.06-.09.13-.19.19-.29.19-.3.4-.63.72-.66.18-.02.39.06.64.25.72.52.5,1.02.09,1.73-.46.8-.88,1.49-1.3,2.19-1.34,2.23-2.73,4.53-3.79,7.33l-.1.27,4.57-.41c3.71-.33,7.8-.42,12.49-.29.11,0,.24,0,.37,0,.38-.02.81-.04,1.07.16.13.1.21.26.25.48Z"/><path class="cls-1" d="M70.85,118.7c.16.6-1.41,1.24-1.92,1.45-.91.38-1.77.59-2.69.67-.8.07-1.62.04-2.45-.08-.43-.07-.79-.08-1.1-.06-.87.08-1.36.5-1.7,1.47-.79,2.29-2.24,4.25-4.3,5.83-.52.4-1.21.86-2.03.93-.52.05-1.02-.07-1.54-.35-1.45-.79-1.6-2.18-1.64-3.53-.08-3.55,1.04-6.78,3.34-9.6.56-.68,1.13-1.35,1.71-2.01.47-.52,1.01-.81,1.63-.86.4-.03.83.03,1.29.19,1.05.37,1.73,1.12,2.2,2.44.4,1.1.51,2.16.33,3.23-.1.59-.01,1,.26,1.27.29.29.76.4,1.51.37.44-.02.88-.05,1.31-.08,1.01-.09,1.9-.23,2.72-.43.37-.09.71-.28,1.04-.46.4-.22.82-.45,1.29-.49.09,0,.18,0,.27,0,.35.02.45.1.45.12ZM59.72,119.75c-.28-.31-.48-.48-.69-.65-.51-.43-1.04-.88-1.63-1.26-.1-.07-.23-.19-.36-.32-.29-.29-.63-.62-1-.59-.2.02-.37.15-.51.39-1.79,3.02-2.93,5.71-2.68,9.04.04.55.23.98.54,1.24.22.18.5.26.79.24.25-.02.5-.12.77-.28,2.84-1.76,4.03-4.66,4.74-6.99.04-.13.03-.28.03-.47,0-.09-.01-.21,0-.33ZM59.16,115.25c-.17-.14-.37-.2-.58-.18-.52.05-.97.59-1.07.96-.28,1.08.58,1.65,1.42,2.21.24.16.48.31.7.49l.24.19.02-.25c.01-.24.05-.47.08-.71.12-.92.25-1.86-.81-2.71Z"/><path class="cls-1" d="M118.88,120.25c.1.66.16,1.32.17,1.97.05,1.89-.09,3.78-.47,5.64-.68,3.29-2.1,6.38-4.06,9.1-1.81,2.52-4.04,4.72-6.44,6.69-.93.77-1.89,1.5-2.87,2.21-2.31,1.68-4.72,2.61-7.36,2.85,0,0-.4.03-.61.04-2.32.11-4.35-.54-5.73-1.83-1.36-1.28-2.03-3.14-1.88-5.24.28-3.85,2.5-6.48,4.86-8.74,6-5.76,12.93-10.84,20.6-15.11,1.29-.72,1.85-1.44,1.76-2.27-.09-.86-.86-1.81-2.42-3-3.72-2.85-7.61-3.28-11.59-3.5-1.32-.07-2.62-.08-3.93-.09-1.74,0-3.54-.02-5.34-.19-1.31-.12-2.3-.58-2.8-1.27-.53-.74-.5-1.74.1-2.8.32-.57.75-1.11,1.27-1.6,8.97-8.42,18.15-14.62,28.08-18.96,1.85-.81,3.48-1.25,5.12-1.4l.41-.03c1.82-.1,3.36.33,4.33,1.24.88.81,1.3,1.99,1.22,3.41-.39,6.31-3.74,11.02-6.62,14.42-.17.21-.32.39-.48.4-.03,0-.13.01-.32-.13-.55-.42-.41-.75-.14-1.25l1.44-2.69c.96-1.8,1.93-3.6,2.86-5.42.74-1.46,1.61-3.44,1.73-5.71.06-1.11-.17-1.87-.71-2.38-.54-.51-1.38-.74-2.63-.72-.3,0-.6.02-.9.05-2.83.25-5.11,1.38-7.2,2.51-5.75,3.13-11.2,6.8-16.2,10.9-1.79,1.47-3.51,2.88-5.1,4.37-.83.77-1.64,1.57-2.4,2.41-.15.17-.31.33-.47.49-.32.33-.64.65-.91,1.01-.26.36-.48.73-.27,1.05.2.32.68.38,1.03.4l1.01.06c1.08.06,2.15.12,3.23.2,1.6.12,3.31.25,5.05.47,3.35.41,6.74,1.14,9.6,3,1.05.68,2.08,1.52,2.89,2.49,1.68,1.88,2.67,4.43,3.06,6.97ZM117.07,117.95c-.49.04-1.04.42-1.39.66l-.22.14c-.7.42-1.39.85-2.08,1.28-1.37.87-2.73,1.75-4.06,2.66-2.83,1.94-5.32,3.85-7.62,5.83-2.55,2.19-4.86,4.5-6.88,6.85-1.93,2.24-2.88,4.42-2.99,6.87-.07,1.46.33,2.62,1.18,3.42.84.8,2.06,1.2,3.64,1.19.21,0,.41-.01.61-.03.67-.06,1.35-.21,1.97-.44,8.03-2.97,13.81-8.73,17.65-17.62.55-1.28,1.22-2.99,1.5-4.9.18-1.3.21-2.39.09-3.45-.07-.57-.16-1.23-.43-1.87-.08-.18-.18-.33-.32-.43-.18-.13-.39-.19-.63-.17Z"/><path class="cls-1" d="M150.85,109.92c.09.13,0,.43-.17.66-3.21,4.02-7.29,7.71-12.14,10.98l-.3.21c-.39.28-.79.57-1.26.61-.36.03-.74-.09-1.14-.38-1-.71-.81-1.46-.61-2.25.04-.16.08-.32.11-.47.42-2.26,1.24-4.37,2.06-6.31,0,0,1.07-2.48,1.3-3.03.03-.07.1-.19.19-.36.53-.97,1.07-2.05.77-2.63-.07-.15-.2-.26-.36-.32-.08-.03-.17-.05-.26-.04-.67.06-1.62,1.29-1.63,1.3-.44.58-.96,1.5-.91,2.55v.18c.04.29.07.77-.13.79-.08,0-.29-.04-.78-.45l-.15-.12-.3.37c-.16.2-.33.4-.49.61-.7.91-1.36,1.84-2.02,2.77-1.46,2.06-2.97,4.19-4.83,5.99l-.37.37c-.57.58-1.21,1.24-1.99,1.31-.36.03-.73-.06-1.12-.29-1.56-.89-1.31-2.4-1.08-3.74l.05-.34c.53-3.35,1.76-6.35,3.68-8.91,1.37-1.84,2.98-2.78,5.04-2.96l.19-.02c.89-.06,1.8-.12,2.25.4.73.84,1.33,1.21,1.88,1.16.53-.05.91-.48,1.31-.93l.14-.15c.29-.33.64-.61,1.01-.82.31-.17.6-.34.92-.37.25-.02.48.05.72.21.62.42.5.9.29,1.49-.94,2.62-1.91,5.18-2.88,7.74l-.76,2.01c-.31.81-.53,1.66-.75,2.49l-.21.79c-.09.35-.08.6.05.78.08.11.19.18.32.22.1.03.21.04.34.02.7-.06,1.78-.72,2.07-.96,2.08-1.71,4.1-3.48,5.98-5.15.62-.55,1.21-1.12,1.8-1.69.42-.4.83-.81,1.26-1.2.21-.19.41-.39.61-.59.37-.37.74-.73,1.15-1.05l.16-.14c.19-.17.47-.42.68-.44.14,0,.27.03.32.11ZM135.06,107.84c-.45-.5-1.1-.79-1.67-.74-.08,0-.16.02-.23.04-.83.23-1.59.58-2.19,1.01-2.87,2.06-4.33,5.17-5.48,7.92-.12.29-.26.57-.39.85-.33.68-.67,1.39-.79,2.19-.05.37-.04,1.52.48,1.92.13.1.28.15.44.14.15-.01.3-.08.47-.2,2.87-2.09,4.82-5,6.7-7.81.89-1.32,1.81-2.69,2.81-3.96.31-.39.25-.9-.14-1.35Z"/><path class="cls-1" d="M172.29,110.17c.03.07-.01.21-.2.34-.56.39-1.24.63-2.03.7-1.96.17-4.28-.73-5.92-2.29-1.4-1.33-2.03-1.94-2.75-1.87-.53.05-1.05.49-1.91,1.23-3.08,2.64-5.64,5.79-8.12,8.83l-1.16,1.43c-.09.1-.17.23-.25.36-.2.31-.4.63-.75.67-.2.02-.45-.06-.76-.25-.81-.5-.66-1.11-.51-1.7l.05-.23c1-4.54,2.33-8.47,4.08-12l.07-.14c.2-.42.46-.95.9-.99.14-.01.29.03.46.11.28.14.46.29.55.47.17.34,0,.75-.16,1.12-.06.13-.11.26-.15.38l-.32,1.03c-.34,1.11-.68,2.22-1.06,3.31-.24.71-.5,1.42-.79,2.12,0,.01-.56,1.68-.3,1.96l.08.08h.13c.66-.21,1.05-.71,1.44-1.2.16-.2.31-.39.47-.55l2-2.02c1.27-1.28,2.55-2.54,3.88-3.76.9-.83,1.49-1.19,2.03-1.24.83-.07,1.71.66,3.14,2.13,1.61,1.65,3.72,2.53,5.66,2.36.31-.03.62-.08.92-.17.12-.03.24-.1.37-.17.16-.09.33-.19.49-.2.26.04.37.1.4.16Z"/><path class="cls-1" d="M195.66,106.19s.02.05-.03.17c-.44,1-1.21,1.7-2.02,2.45l-.54.51c-1.03.99-2.06,2.07-3.16,3.3-1.63,1.83-3.2,3.77-4.71,5.64l-1.19,1.47c-.58.72-.75,1.55-.83,2.59-.72,9.65-3.69,18-8.84,24.82-.56.74-1.24,1.33-1.97,1.71-.4.2-.78.32-1.14.35-.5.04-.93-.08-1.29-.36-.5-.4-.84-1.09-.97-2.01-.3-2.14.2-4,1.05-6.13,2.04-5.15,5.2-9.68,8.25-14.07.83-1.2,1.67-2.4,2.48-3.62.13-.19.27-.38.41-.57.64-.87,1.29-1.77,1.13-3.16-.12-.98-.48-1.73-1.04-2.18-.46-.36-1.02-.52-1.67-.46-.27.02-.55.09-.85.18-.62.2-1.19.49-1.74.77-.38.19-.76.38-1.15.55-.17.07-.34.18-.52.3-.26.17-.53.35-.81.37-.19.02-.49-.02-.92-.51-.63-.73-.3-1.14.29-1.69.12-.11.23-.22.32-.32.53-.6,1.08-1.18,1.63-1.76.83-.88,1.7-1.78,2.46-2.74,2.13-2.64,3.47-5.02,4.22-7.48.2-.65.5-1.63-.44-2.37-.35-.27-.71-.39-1.1-.36-.38.03-.73.21-1.07.38l-.23.11c-2.34,1.12-3.88,3.01-5.37,4.84l-.61.77c-.31.39-.62.8-.99,1.14l-.14.14c-.14.15-.28.3-.46.32-.12.01-.27-.05-.44-.18-.32-.24-.38-.53-.21-.97,1.66-4.2,4.5-6.62,8.68-7.39.11-.02.22-.04.33-.05.71-.06,1.33.12,1.8.51.58.49.9,1.29.93,2.26.06,2.11-.67,3.91-1.4,5.4-1.24,2.54-2.66,4.75-4.59,7.14l-.28.34.49-.08c.24-.03.47-.06.7-.08,2.54-.22,3.99.65,4.84,2.91l.32-.03c.01-.16.74-.89,1.05-1.2.16-.16.29-.29.34-.35.48-.6.95-1.2,1.43-1.81l.37-.47c.82-1.05,1.63-2.1,2.49-3.12,1.52-1.82,3.01-3.3,4.56-4.55.28-.23.54-.47.8-.71l.24-.22c.11-.1.75-.44,1.1-.47,0,0,.02-.01.03-.01ZM181.75,123.93l-.31-.18c-4.02,5.01-8.17,10.18-10.62,16.55-.64,1.66-1.07,3.58-1.23,5.56-.05.64.1,1.17.44,1.47.22.2.51.3.8.27.38-.03.76-.27,1.07-.66,4.7-5.95,7.83-13.27,9.86-23.03Z"/><path class="cls-1" d="M212.35,106.24c.16.6-1.41,1.24-1.92,1.45-.91.38-1.77.59-2.69.67-.8.07-1.62.04-2.45-.09-.43-.07-.79-.08-1.1-.06-.87.08-1.36.5-1.7,1.47-.79,2.29-2.24,4.25-4.3,5.83-.52.4-1.21.86-2.03.93-.52.05-1.02-.07-1.54-.35-1.45-.79-1.6-2.18-1.64-3.53-.08-3.55,1.04-6.78,3.34-9.6.56-.68,1.13-1.35,1.71-2.01.47-.52,1.01-.81,1.63-.86.4-.03.83.03,1.29.19,1.05.37,1.73,1.12,2.2,2.44.4,1.11.51,2.16.33,3.23-.1.59-.01,1,.26,1.27.29.29.76.4,1.51.37.44-.02.88-.05,1.31-.08,1.01-.09,1.9-.23,2.72-.43.37-.09.71-.28,1.04-.46.4-.22.82-.45,1.29-.49.09,0,.18,0,.27,0,.35.02.45.1.45.12ZM201.21,107.29c-.28-.31-.48-.48-.69-.65-.51-.43-1.04-.88-1.63-1.26-.1-.07-.23-.19-.36-.32-.29-.29-.63-.63-1-.59-.2.02-.37.15-.51.39-1.79,3.02-2.93,5.71-2.68,9.04.04.55.23.98.54,1.24.22.18.5.26.79.24.25-.02.5-.12.77-.28,2.84-1.76,4.03-4.66,4.74-6.99.04-.13.03-.28.03-.47,0-.1-.01-.21,0-.33ZM200.65,102.79c-.17-.14-.37-.2-.58-.18-.52.05-.97.59-1.07.96-.28,1.08.58,1.65,1.42,2.21.24.16.48.31.7.49l.24.19.02-.25c.01-.24.05-.47.08-.71.12-.92.25-1.86-.81-2.71Z"/><path class="cls-1" d="M241.43,128c-.17.01-.36,0-.57-.05-1.44-.32-1.86-1.7-1.97-2.28l-.12-.6c-.26-1.27-.53-2.58-.28-3.63.85-3.52-.95-6.76-3.2-10.34-3.44-5.44-7.01-11.9-7.47-18.5-.65-9.34,4.06-15.56,13.99-18.47l.25-.07c.86-.25,1.75-.51,2.67-.68.35-.06.72-.1,1.08-.14l1.8-.13c6.44-.36,14.06-.08,21.67,4.76,5.66,3.6,7.75,8.91,5.31,13.52-2.07,3.92-5.92,6.58-12.14,8.36-3.08.89-6.38,1.78-9.83,2.08-1.91.17-3.72.15-5.54-.05-.2-.02-.39-.02-.56,0-1.07.09-1.41.89-1.66,1.71l-.99,3.11c-.72,2.28-1.45,4.55-2.14,6.84-.87,2.89-1.49,5.78.39,9.25.63,1.16.5,2.38.39,3.56-.08.84-.27,1.68-1.08,1.75t0,0ZM248.41,73.91c-2.12.19-4.28.59-6.4,1.18-6.18,1.74-10.11,4.92-12.03,9.71-2.46,6.16-1.24,13.32,3.76,21.88,1.02,1.75,2.07,3.48,3.18,5.32l1.87,3.09.12-.39c.35-1.13.68-2.23,1-3.29.77-2.56,1.49-4.97,2.36-7.3.21-.55,1.98-5.38,2.22-6.06l.19-.53c2.05-5.33,4.54-11.61,7.48-17.72l.84-1.74c.32-.66.73-1.37,1.46-1.49.24.08.34.41-.17,1.75l-.07.18c-.6,1.86-1.27,3.69-1.94,5.52l-.36.98c-.61,1.63-1.25,3.24-1.88,4.86-.51,1.31-1.03,2.62-1.53,3.93-.78,2.04-1.54,4.09-2.24,6.18l-.09.28h.34c1.51.06,2.98.02,4.51-.11,2.74-.24,5.21-.75,7.7-1.29,3.97-.86,8.97-2.3,12.47-5.87,2.29-2.33,4.3-5.32,1.94-9.76-2.15-4.04-6.32-5.98-9.26-7.08-5.17-1.93-10.38-2.68-15.48-2.23Z"/><path class="cls-1" d="M301.71,96.63c.09.13,0,.43-.17.66-3.21,4.02-7.3,7.71-12.15,10.98l-.3.21c-.39.28-.78.57-1.26.61-.36.03-.74-.09-1.14-.38-1-.71-.81-1.46-.61-2.25.04-.16.08-.32.11-.47.42-2.26,1.24-4.37,2.06-6.31,0,0,1.07-2.48,1.3-3.03.03-.07.1-.19.19-.36.53-.97,1.07-2.05.77-2.63-.08-.15-.2-.26-.36-.32-.08-.03-.17-.05-.26-.04-.67.06-1.62,1.29-1.63,1.3-.44.58-.96,1.5-.91,2.55v.18c.04.29.07.77-.13.79-.08,0-.29-.04-.78-.45l-.15-.12-.3.37c-.16.2-.33.4-.49.61-.7.91-1.36,1.84-2.02,2.77-1.46,2.06-2.97,4.19-4.84,5.99l-.37.37c-.57.58-1.21,1.24-2,1.31-.36.03-.73-.06-1.12-.29-1.56-.89-1.31-2.4-1.08-3.74l.05-.34c.53-3.35,1.76-6.35,3.68-8.91,1.37-1.84,2.97-2.78,5.04-2.96l.2-.02c.89-.06,1.8-.12,2.25.4.73.84,1.33,1.21,1.88,1.16.53-.05.91-.48,1.31-.93l.13-.15c.29-.33.64-.61,1.01-.82.31-.17.6-.34.92-.37.25-.02.48.05.72.21.62.42.5.9.29,1.49-.94,2.62-1.91,5.18-2.88,7.74l-.76,2.01c-.31.81-.53,1.66-.75,2.49l-.21.78c-.09.35-.08.6.05.78.07.11.19.18.32.22.1.03.21.04.34.02.7-.06,1.78-.72,2.07-.96,2.08-1.71,4.1-3.48,5.98-5.15.62-.55,1.21-1.12,1.8-1.69.42-.4.83-.81,1.26-1.2.21-.19.41-.39.62-.59.37-.37.74-.73,1.15-1.05l.16-.14c.19-.17.47-.42.68-.44.14,0,.27.03.32.11ZM285.92,94.55c-.45-.5-1.11-.79-1.67-.74-.08,0-.16.02-.23.04-.83.23-1.59.58-2.19,1.01-2.86,2.06-4.33,5.17-5.48,7.92-.12.29-.26.57-.39.85-.33.68-.67,1.39-.79,2.19-.05.37-.04,1.52.48,1.92.13.1.28.15.44.14.15-.01.3-.08.47-.2,2.87-2.09,4.81-5,6.7-7.81.89-1.32,1.8-2.69,2.8-3.96.31-.39.25-.9-.14-1.35Z"/><path class="cls-1" d="M319.11,62.13c-.75,1.05-1.36,2.23-2.01,3.35-.04.07-.09.15-.13.22-1.6,2.8-3.15,5.67-4.62,8.6-6.51,12.98-11.6,27.15-13.97,41.9-.83,5.18-1.01,9.56-.55,13.78.02.17.03.33.04.51.04.72.09,1.47.67,1.99.4.37,1,.56,1.82.59.14,0,.29.06.41.16.18.15.3.36.35.6.13.63-.28.81-.66.85h-.07c-1.91.17-3.17-.6-3.87-2.36-.74-1.85-.73-3.65-.73-5.4v-.55c-.02-15.61,5.2-30.21,10.48-43.72,3-7.65,5.79-15.34,10.76-21.82.08-.11.16-.23.24-.37.23-.37.5-.8.91-.83.22-.02.49.08.81.31.9.65.63,1.28.11,2.17Z"/><path class="cls-1" d="M329,95.96c.16.6-1.41,1.24-1.92,1.45-.91.38-1.77.59-2.68.67-.8.07-1.62.04-2.45-.09-.43-.07-.79-.08-1.1-.06-.87.08-1.36.5-1.7,1.47-.79,2.29-2.24,4.25-4.3,5.83-.52.4-1.21.86-2.03.93-.52.05-1.02-.07-1.54-.35-1.45-.79-1.61-2.18-1.64-3.53-.08-3.55,1.04-6.78,3.34-9.6.56-.68,1.13-1.35,1.71-2.01.47-.52,1.01-.81,1.63-.86.4-.04.83.03,1.28.19,1.05.37,1.73,1.12,2.2,2.44.4,1.1.51,2.16.33,3.23-.1.59-.01,1,.26,1.27.29.29.76.4,1.51.37.44-.02.87-.05,1.31-.08,1.01-.09,1.9-.23,2.72-.43.37-.09.71-.28,1.04-.46.4-.22.82-.45,1.29-.49.09,0,.18,0,.27,0,.35.02.44.09.45.12ZM317.86,97.01c-.28-.31-.48-.48-.69-.65-.51-.43-1.04-.88-1.63-1.26-.1-.07-.23-.19-.36-.32-.29-.29-.63-.62-1-.59-.2.02-.37.15-.51.39-1.79,3.02-2.93,5.71-2.68,9.04.04.55.23.98.54,1.24.22.18.5.26.79.24.25-.02.5-.12.77-.28,2.84-1.76,4.03-4.66,4.74-6.99.04-.14.03-.28.03-.47,0-.1,0-.21,0-.33ZM317.31,92.52c-.17-.14-.37-.2-.58-.18-.52.05-.97.59-1.07.96-.29,1.08.58,1.65,1.42,2.21.23.16.47.31.7.49l.24.19.02-.25c.01-.24.04-.47.08-.71.12-.92.25-1.86-.81-2.7Z"/><path class="cls-1" d="M365.72,95.14c-1.52,2.85-3.58,5.5-5.94,7.68-1.15,1.05-2.39,1.99-3.69,2.77l-.19.11c-1.14.69-2.86,1.73-4.61,1.89-1.13.1-2.08-.18-2.92-.84-1.71-1.36-1.64-2.92-1.42-4.39.11-.73.48-1.34.83-1.94.15-.25.3-.5.43-.75.36-.69.69-1.62.29-2.08-.17-.2-.44-.29-.8-.26-.16.01-.34.05-.55.12-1.18.36-1.95,1.16-2.69,1.94-.45.47-.91.95-1.46,1.33-.29.2-.57.42-.85.63-.77.59-1.56,1.2-2.58,1.48-.25.07-.48.11-.69.13-.52.05-.93-.05-1.22-.3-.38-.32-.59-.91-.62-1.75-.06-1.79.62-3.29,1.28-4.75.33-.74.66-1.42.98-2.1.24-.51.48-1.01.72-1.52.15-.32.33-.62.52-.92.24-.4.5-.81.67-1.27.3-.81.33-1.21.11-1.42-.1-.1-.28-.21-.56-.19-.48.04-.98.47-1.08.56-1.33,1.18-2.48,2.63-3.6,4.02-.42.52-.84,1.05-1.26,1.55-1.83,2.19-3.74,4.38-5.67,6.53-.28.31-.59.6-.99.64-.08,0-.17,0-.25-.01-.5-.09-.91-.58-1.06-1.01-.17-.48-.12-.94-.04-1.42.43-2.72,1.28-5.24,2.53-7.49.15-.28.3-.52.54-.67.11-.07.24-.11.37-.12.12-.01.3,0,.48.1.32.18.47.53.5.77.04.32-.04.62-.13.9l-1.54,5.23c-.06.19-.03.49.13.67.09.1.21.16.33.17.21-.03.28-.1.34-.17,1.32-1.44,2.59-2.92,3.87-4.39,2.1-2.43,4.27-4.94,6.59-7.24.35-.35.78-.72,1.3-.76.14-.01.28,0,.43.04.75.19,1.3,1.03,1.35,1.7.06.76-.31,1.57-.63,2.29-.12.26-.23.51-.32.74-.43,1.14-.9,2.26-1.36,3.39l-.21.5c-.52,1.27-1.07,2.53-1.67,3.93l-1.06,2.47.4-.12c1.73-.51,2.86-1.3,3.96-2.06.46-.32.91-.64,1.39-.91.44-.25.84-.54,1.25-.83.88-.62,1.79-1.26,2.97-1.51.16-.03.31-.06.45-.07.37-.03.89,0,1.2.29.29.28.38.76.25,1.4-.19,1.01-.49,2-.79,2.95-.23.75-.46,1.5-.64,2.28-.03.14-.07.27-.12.41-.22.71-.49,1.6.57,2.47.59.49,1.24.69,1.98.63.49-.04.94-.19,1.34-.33,3.89-1.29,6.54-3.87,8.62-6.22,1.51-1.71,2.57-3.74,3.33-5.32.48-1,.89-1.38,1.12-1.4.04,0,.11,0,.22.14.1.15.19.57-.42,1.69Z"/><path class="cls-1" d="M383.1,91.67c.05.51-.73,1-1.02,1.29-1.11,1.12-2.25,2.21-3.46,3.24-2.46,2.08-5.22,3.87-8.47,4.99-1.37.48-2.85.86-4.49-.34-1.66-1.22-1.74-2.79-1.5-4.14.85-4.84,2.8-9.1,5.66-12.85.35-.46.74-1.22,1.71-.58,1,.67.4,1.3.14,1.81-1.88,3.67-3.77,7.33-5.02,11.34-.33,1.06-1.23,2.36.07,3.45,1.37,1.16,2.98.48,4.19.07,2.59-.87,4.73-2.38,6.65-4.05.59-.51,4.69-5.1,5.34-4.66.1.07.17.22.19.44ZM371.96,79.67c-.46-1.35.2-1.91,1.38-2.09.82-.13,1.5.14,1.9,1.21.17,1.12-.57,1.63-1.69,1.84-.75.14-1.31-.11-1.6-.96Z"/><path class="cls-1" d="M410.83,88.73c.09.24-.13.52-.32.76-.09.11-.18.23-.23.33-2.47,4.68-6.13,8.65-11.19,12.13-.53.36-1.18.57-2.05.67h-.09c-.87.08-1.56-.08-2.06-.48-.51-.42-.81-1.07-.89-1.96-.13-1.6.5-2.89,1.11-4.14l.42-.87c.21-.42.41-.84.55-1.3l.06-.16c.12-.31.29-.73-.22-1.16-.29-.24-.62-.35-1.01-.31-.15.01-.31.05-.48.1-1.31.44-2.67.91-3.95,1.48-1.7.76-3.21,1.79-4.67,2.79-.64.44-1.28.87-1.94,1.29l-.18.12c-.3.2-.61.41-.97.44-.32.03-.65-.09-1.02-.35-.78-.57-.69-1.16-.6-1.79l.03-.2c.36-2.89,1.18-5.53,2.46-7.86l.09-.17c.14-.27.29-.58.59-.61.1,0,.21.01.35.06.23.09.39.22.5.4.38.64-.02,1.76-.27,2.42-.06.17-.12.31-.15.42l-1.4,4.87c-.04.12-.14.51.15.73.13.1.29.13.5.11.46-.04,1.08-.35,1.29-.48.29-.19.55-.41.82-.63.3-.25.6-.5.95-.7,1.08-.61,2.17-1.22,3.28-1.8,1.38-.71,2.65-1.2,3.89-1.48.19-.04.37-.07.55-.09.89-.08,1.67.17,2.22.7.6.58.84,1.41.68,2.35-.21,1.2-.58,2.36-.94,3.49-.2.63-.4,1.26-.58,1.91l-.07.22c-.12.38-.3.89.2,1.32.28.24.6.35.97.32.29-.03.57-.14.81-.24,3.17-1.27,5.3-3.59,7.05-5.66,1.47-1.73,3.29-3.89,4.36-6.43l.06-.15c.14-.35.33-.83.64-.86.08,0,.17.02.28.08.22.13.36.26.41.38Z"/><path class="cls-1" d="M428.36,87.21c.16.6-1.41,1.24-1.92,1.45-.91.38-1.77.59-2.69.67-.8.07-1.62.04-2.45-.09-.43-.07-.79-.08-1.1-.06-.87.08-1.36.5-1.7,1.47-.79,2.29-2.24,4.25-4.3,5.83-.52.4-1.21.86-2.03.93-.52.05-1.02-.07-1.54-.35-1.45-.79-1.61-2.18-1.64-3.53-.08-3.55,1.04-6.78,3.34-9.6.56-.68,1.13-1.35,1.71-2.01.47-.52,1.01-.81,1.63-.86.4-.04.83.03,1.28.19,1.05.37,1.73,1.12,2.2,2.44.4,1.1.51,2.16.33,3.23-.1.59-.01,1,.26,1.27.29.29.76.4,1.51.37.44-.02.87-.05,1.31-.08,1.01-.09,1.9-.23,2.72-.43.37-.09.71-.28,1.04-.46.4-.22.82-.45,1.29-.49.09,0,.18,0,.27,0,.35.02.44.1.45.12ZM417.22,88.26c-.28-.31-.48-.48-.69-.65-.51-.44-1.04-.88-1.63-1.26-.1-.07-.23-.19-.36-.32-.29-.29-.63-.63-1-.59-.2.02-.37.15-.51.39-1.79,3.02-2.93,5.71-2.68,9.04.04.55.23.98.54,1.24.22.18.5.26.79.24.25-.02.5-.12.77-.28,2.84-1.76,4.03-4.66,4.74-6.99.04-.13.03-.28.03-.47,0-.1,0-.21,0-.33ZM416.67,83.76c-.17-.14-.37-.2-.58-.18-.52.05-.97.59-1.07.96-.28,1.08.58,1.65,1.42,2.21.24.16.48.31.7.49l.24.19.02-.25c.01-.24.04-.47.08-.71.12-.92.25-1.86-.81-2.7Z"/><path class="cls-1" d="M167.39,216.68c.85-.24,1.67-.72,2.86-3.65l7.09-17.52c.2-.51.17-.89-.07-1.36l-.2-.44,1.74-.75,8.28,20.11c1.19,2.9,1.91,3.37,2.59,3.61v.38h-4.3v-.38c.95-.24.92-.72-.27-3.61l-2.11-5.11h-10.16l-2.05,5.08c-.89,2.15-.89,3.41.31,3.65v.38h-3.72v-.38ZM182.8,207.47l-4.94-11.96-4.81,11.96h9.75Z"/><path class="cls-1" d="M193.36,195.68v16.43c0,3.55.78,4.3,2.05,4.57v.38h-3.92v-.38c.95-.24,1.36-.82,1.36-3.95v-15.2c0-3.14-.55-3.72-1.77-3.95v-.38h2.83l15.48,20.76v-15.82c0-3.54-.78-4.29-2.05-4.57v-.38h3.92v.38c-.95.24-1.36.82-1.36,3.95v19.81h-.44l-16.09-21.65Z"/><path class="cls-1" d="M214.49,205.15c0-7.23,4.81-12.24,12.03-12.24,5.76,0,12,3.95,12,12.31s-6.27,12.17-12,12.17-12.03-3.89-12.03-12.24ZM227.41,216.74c5.73,0,9.31-3.95,9.31-9.75,0-6.95-4.81-13.43-11.18-13.43-5.76,0-9.2,4.12-9.2,9.75,0,6.89,4.67,13.43,11.08,13.43Z"/><path class="cls-1" d="M241.99,214.97l-.24-4.36.34-.03c1.16,3.27,3.27,6.31,8.28,6.31,3.1,0,5.62-2.05,5.62-4.77,0-3.48-3.92-5.08-6.95-6.27-4.6-1.81-6.72-3.48-6.72-6.72,0-3.75,3.17-6.17,7.81-6.17,3.75,0,5.9,1.16,6.75,1.7l.14,3.44-.27.07c-1.12-2.35-2.97-4.7-7.5-4.7-2.79,0-5.35,1.57-5.35,4.74,0,3.34,3.58,4.74,6.71,6.03,4.06,1.67,7.02,3.17,7.02,6.75,0,3.78-3.58,6.41-7.74,6.41-3.65,0-6.48-1.4-7.91-2.42Z"/><path class="cls-1" d="M194.55,190.15c-.11-1.76,1.34-2.95,3.81-2.95,1.23,0,2.13.26,3.3.58.9.26,1.79.52,2.69.52.84,0,1.34-.2,1.51-1.13h2.58c.06,1.82-1.18,2.81-3.75,2.81-1.18,0-2.18-.23-3.41-.55-1.07-.29-1.85-.55-2.63-.55-.9,0-1.34.49-1.46,1.27h-2.63Z"/></svg>