<?xml version="1.0" encoding="UTF-8"?><svg id="Capa_2" xmlns="http://www.w3.org/2000/svg" xmlns:xlink="http://www.w3.org/1999/xlink" viewBox="0 0 495.59 338.33"><defs><style>.cls-1{fill:none;stroke-width:0px;}.cls-2{clip-path:url(#clippath);}</style><clipPath id="clippath"><path class="cls-1" d="M247.8,338.32c-77.66,0-155.32,0-232.99,0-11.16,0-14.81-3.57-14.81-14.51C0,220.81,0,117.82,0,14.82,0,3.73,3.45.21,14.6.06c7.83-.11,15.66-.03,23.49-.03,147.99,0,295.98,0,443.97.01,9.37,0,13.52,4.03,13.52,13.28.02,103.83.02,207.65,0,311.48,0,9.62-4.01,13.52-13.79,13.52-77.99,0-155.99,0-233.98,0ZM41.44,22.48c.2,2,1.58,2.53,2.5,3.38,66.07,60.05,132.15,120.09,198.24,180.11,4.81,4.37,6.45,4.33,11.44-.2,66.09-60.03,132.18-120.06,198.24-180.12.88-.8,2.42-1.27,2.11-3.17H41.44ZM453.94,314.22c.25-.42.5-.83.74-1.25-.71-.43-1.52-.77-2.13-1.32-46.13-41.89-92.27-83.77-138.32-125.75-2.53-2.31-3.85-1.76-6.03.25-13.11,12.08-26.35,24.02-39.53,36.03-13.54,12.35-28.27,12.31-41.87-.09-13.17-12.01-26.44-23.93-39.52-36.04-2.32-2.14-3.63-2.24-6.03-.06-45.68,41.64-91.45,83.19-137.17,124.79-.99.9-2.69,1.45-2.46,3.44h412.31ZM22.71,36.72v263.18c1.6-1.37,2.49-2.09,3.33-2.86,45.99-41.75,91.95-83.54,138.03-125.2,3.32-3,2.72-4.43-.27-7.12-35.71-32.27-71.29-64.67-106.92-97.04-11.19-10.17-22.41-20.31-34.18-30.96ZM473.05,36.83c-1.31,1.02-1.85,1.38-2.33,1.82-46.6,42.32-93.17,84.69-139.87,126.9-3.64,3.29-1.14,4.52.92,6.39,39.57,35.94,79.15,71.88,118.72,107.81,7.24,6.58,14.51,13.13,22.56,20.4V36.83Z"/></clipPath></defs><g id="Capa_1-2"><g class="cls-2"><image width="626" height="404" transform="translate(-166.15 -137.58) scale(1.33)" xlink:href="gold-leaf.jpg"/></g></g></svg>