<?xml version="1.0" encoding="UTF-8"?><svg id="Capa_2" xmlns="http://www.w3.org/2000/svg" viewBox="0 0 441.72 217.39"><defs><style>.cls-1{fill:#ae9472;stroke-width:0px;}.cls-2{opacity:.36;}</style></defs><g id="Capa_1-2"><g class="cls-2"><path class="cls-1" d="M171.4,113.46c0-23.29-16.37-35.28-41.28-34.59-11.53.23-20.52,2.77-25.14,3.69l-2.31-1.61,9.22-55.58,1.84-10.84h35.51c20.52,0,28.6-5.3,32.52-14.53l2.31.92c-5.53,12.68-14.3,24.44-41.28,24.44h-28.13l-7.38,46.35c8.76-2.77,17.76-4.15,29.06-4.15,35.05-.23,49.35,20.52,49.35,41.97,0,32.28-31.13,64.11-86.02,98.47l-1.38-2.77c49.81-30.9,73.1-65.03,73.1-91.78Z"/><path class="cls-1" d="M205.98,95.01c0-48.89,31.13-82.1,67.34-82.1,33.44,0,70.1,27.9,70.1,83.25,0,48.89-31.13,82.1-67.34,82.1-33.44,0-70.1-27.9-70.1-83.25ZM282.77,173.88c32.52,0,47.04-28.13,47.5-63.88.46-47.74-25.83-92.7-62.49-92.7-33.67,0-48.2,28.13-48.66,63.88-.46,47.74,25.83,92.7,63.65,92.7Z"/></g><path class="cls-1" d="M11.58,150.65c-1.05-.48-1-1.22-.81-2.23l.07-.39c.8-5.4,2.32-10.54,3.95-15.75,1.84-5.91.52-12.51-.64-18.33-1.63-8.2-5.75-16.21-12.6-24.51-1.14-1.38-1.62-2.34-1.55-3.11.06-.79.71-1.45,2.08-2.13,5.19-2.59,10.92-4.26,17.92-5.96,3.18-.77,6.46-1.36,10.12-1.99,1.16-.2,1.56-1.07,1.87-1.95l.08-.25c.18-.55.45-1.39,1.01-1.44l.29.04c.47.18.94.84,1.13,1.26.07.14.4,1.32.4,1.48l.27.27,2.52-.19c4.34-.33,8.83-.67,13.37-.56l1.75.04c6.14.14,12.48.29,18.96,1.86,2.12.52,3.56,1.27,3.65,3.25.03.64-.28,1.37-1.03,1.43-.32,0-.5-.04-.64-.15-.29-.24-.4-.76-.48-1.22-.24-1.42-1.43-1.55-2.21-1.63-.19-.02-.38-.04-.54-.07-6.62-1.4-13.1-1.52-19.37-1.63-4.26-.07-8.66.08-13.09.47-.71.06-1.42.13-2.13.21-1.34.14-2.26.51-2.69,1.9-6.49,21.14-11.66,38.87-16.28,55.79-.46,1.68-.82,3.43-1.18,5.13-.62,2.99-1.27,6.08-2.45,8.88-.07.16-.12.34-.18.52-.17.54-.35,1.09-.84,1.14-.2.02-.45-.04-.74-.18ZM28.73,78.41c-.81.19-1.48.34-2.17.45-6.75,1.04-13.74,2.97-21.99,6.09-1.89.71-2.79,1.13-2.91,1.88-.12.79.67,1.86,2.07,3.69,5,6.49,8.45,13.03,10.55,20.01.65,2.16,1.13,4.34,1.59,6.45.34,1.56.68,3.12,1.09,4.7l.41.1,2.8-9.44c3.27-11.05,6.65-22.48,10.28-33.95l.12-.38-1.85.41Z"/><path class="cls-1" d="M45.44,120.62c.05.53-.75,1.03-1.05,1.33-1.14,1.15-2.32,2.28-3.57,3.34-2.53,2.14-5.39,3.99-8.73,5.15-1.41.49-2.94.88-4.63-.35-1.71-1.26-1.8-2.87-1.55-4.27.88-4.99,2.89-9.39,5.84-13.25.36-.48.76-1.26,1.76-.6,1.04.69.41,1.34.14,1.87-1.94,3.78-3.89,7.56-5.17,11.69-.34,1.1-1.27,2.43.07,3.56,1.42,1.19,3.07.5,4.33.07,2.67-.9,4.88-2.45,6.86-4.18.61-.53,4.83-5.26,5.51-4.81.11.07.18.23.2.45ZM33.95,108.25c-.48-1.39.2-1.97,1.42-2.16.84-.13,1.54.15,1.96,1.25.18,1.15-.59,1.68-1.74,1.89-.77.14-1.35-.11-1.65-.98Z"/><path class="cls-1" d="M73.75,100.31c.04.2.01.41-.5.46-.23.02-.49,0-.72-.01l-.24-.02c-3.96-.18-7.8.12-11.39.43l-2.72.24c-.94.08-1.88.16-2.82.23h0c-1.13.1-1.88.35-2.26,1.29l-.78,1.9c-3.85,9.42-7.84,19.16-9.54,29.8-.68,4.25-.83,7.84-.46,11.3.01.13.02.27.03.41.04.59.07,1.2.55,1.64.33.3.82.46,1.5.48.12,0,.24.05.34.13.15.12.25.3.29.49.11.52-.23.67-.54.7h-.05c-1.56.14-2.6-.49-3.18-1.93-.61-1.52-.6-2.99-.59-4.42v-.45c-.01-9.7,2.74-18.48,5.4-26.98l.23-.74c.87-2.77,1.93-5.49,2.96-8.13.5-1.26.99-2.52,1.46-3.8.14-.36.29-.73-.42-1.67l-.08-.1h-.12c-1.61.15-3.23.28-4.87.41-1.66.13-3.34.26-5.02.41-2.72.24-4.93.48-6.96.75-.85.11-1.72.2-2.59.28-2.21.21-4.49.43-6.52,1.14-.24.08-.5.17-.77.19-.26.02-.47-.02-.63-.12-.15-.1-.26-.26-.34-.48-.12-.35,0-.49.46-.53.11-.01.7-.03.7-.03l.16-.02c3.96-.72,8.02-1.13,11.1-1.4,1.65-.15,3.31-.28,4.96-.41,1.66-.13,3.31-.26,4.96-.41,1.56-.14,3.12-.29,4.67-.47,1.53-.17,2.67-.6,3.25-2.12,1.26-3.3,3.03-6.41,5.41-9.51.07-.09.13-.19.2-.3.19-.31.41-.65.74-.68.18-.02.4.07.66.25.74.53.52,1.05.09,1.78-.47.82-.9,1.54-1.34,2.26-1.38,2.3-2.82,4.67-3.91,7.56l-.11.27,4.71-.42c3.83-.34,8.04-.44,12.88-.3.11,0,.24,0,.38-.01.39-.02.84-.04,1.1.16.13.1.22.27.26.49Z"/><path class="cls-1" d="M73.06,117.7c.16.62-1.45,1.28-1.98,1.49-.93.39-1.83.6-2.77.69-.82.07-1.67.04-2.53-.09-.44-.07-.81-.09-1.13-.06-.89.08-1.4.52-1.75,1.52-.82,2.36-2.31,4.38-4.43,6.02-.53.41-1.25.89-2.09.96-.53.05-1.05-.07-1.59-.36-1.5-.81-1.65-2.25-1.69-3.64-.09-3.66,1.07-6.99,3.44-9.89.57-.7,1.16-1.39,1.77-2.07.48-.54,1.05-.83,1.68-.89.41-.04.85.03,1.33.19,1.08.38,1.78,1.15,2.27,2.51.41,1.14.53,2.23.35,3.33-.1.61-.01,1.03.27,1.31.3.29.78.41,1.56.38.45-.02.9-.05,1.35-.09,1.05-.09,1.96-.24,2.8-.44.39-.1.73-.29,1.07-.47.41-.23.84-.46,1.33-.51.09,0,.18,0,.28,0,.36.02.46.1.46.12ZM61.58,118.78c-.29-.32-.5-.49-.71-.67-.53-.45-1.08-.91-1.68-1.3-.11-.07-.24-.2-.37-.33-.3-.3-.65-.64-1.03-.61-.21.02-.38.15-.53.4-1.84,3.11-3.02,5.89-2.77,9.32.04.57.24,1.01.56,1.28.23.19.51.27.81.24.25-.02.52-.12.8-.29,2.93-1.82,4.15-4.81,4.89-7.21.04-.14.04-.29.03-.48,0-.1-.01-.21,0-.34ZM61.01,114.15c-.18-.14-.38-.21-.6-.19-.53.05-1,.61-1.1.99-.29,1.11.6,1.71,1.47,2.28.24.16.49.32.72.5l.25.19.02-.26c.01-.25.05-.49.08-.73.13-.95.26-1.92-.84-2.79Z"/><path class="cls-1" d="M122.58,119.3c.1.68.16,1.36.18,2.03.05,1.95-.09,3.9-.48,5.81-.7,3.39-2.16,6.58-4.18,9.38-1.87,2.6-4.17,4.87-6.64,6.9-.96.79-1.95,1.55-2.96,2.28-2.38,1.73-4.86,2.69-7.59,2.93,0,0-.42.03-.63.04-2.39.11-4.49-.56-5.91-1.89-1.41-1.32-2.09-3.23-1.93-5.4.29-3.97,2.58-6.68,5.01-9.01,6.18-5.93,13.33-11.18,21.24-15.59,1.33-.74,1.9-1.48,1.81-2.35-.09-.88-.89-1.87-2.49-3.1-3.83-2.94-7.85-3.38-11.96-3.61-1.36-.07-2.71-.08-4.05-.09-1.8,0-3.65-.02-5.5-.2-1.35-.13-2.37-.59-2.88-1.31-.55-.76-.51-1.79.1-2.88.33-.59.77-1.15,1.31-1.65,9.25-8.68,18.72-15.08,28.95-19.55,1.91-.84,3.59-1.29,5.28-1.44l.42-.03c1.87-.11,3.46.34,4.47,1.27.91.84,1.35,2.05,1.26,3.51-.4,6.5-3.85,11.36-6.82,14.86-.18.22-.33.4-.5.42-.03,0-.13.01-.33-.13-.57-.43-.43-.77-.15-1.29l1.48-2.78c.99-1.86,1.99-3.71,2.95-5.59.77-1.51,1.66-3.54,1.79-5.89.06-1.15-.17-1.93-.73-2.45-.56-.53-1.43-.77-2.71-.74-.31,0-.62.02-.93.05-2.92.26-5.27,1.42-7.42,2.59-5.93,3.23-11.55,7.01-16.7,11.24-1.84,1.51-3.62,2.97-5.26,4.5-.86.8-1.69,1.62-2.48,2.48-.16.17-.32.34-.49.51-.33.34-.66.67-.93,1.04-.27.37-.49.75-.28,1.09.21.33.7.4,1.06.41l1.04.06c1.11.06,2.22.12,3.34.2,1.65.12,3.41.26,5.21.48,3.45.42,6.95,1.17,9.9,3.09,1.09.71,2.15,1.57,2.98,2.56,1.73,1.94,2.76,4.57,3.15,7.18ZM120.72,116.92c-.51.04-1.07.43-1.44.68l-.22.15c-.72.43-1.43.88-2.14,1.32-1.42.89-2.81,1.8-4.19,2.75-2.91,2-5.49,3.97-7.86,6.01-2.63,2.26-5.01,4.64-7.1,7.07-1.99,2.31-2.97,4.56-3.09,7.08-.07,1.51.34,2.7,1.21,3.53.87.82,2.13,1.24,3.75,1.23.21,0,.42-.01.63-.03.69-.06,1.39-.22,2.03-.45,8.28-3.06,14.24-9,18.2-18.17.57-1.32,1.26-3.08,1.54-5.06.19-1.34.22-2.47.09-3.56-.07-.59-.17-1.27-.44-1.92-.08-.19-.19-.34-.33-.44-.19-.14-.4-.2-.65-.17Z"/><path class="cls-1" d="M155.55,108.64c.09.14,0,.44-.18.68-3.31,4.15-7.52,7.95-12.52,11.32l-.31.22c-.4.29-.81.59-1.3.63-.37.03-.76-.1-1.18-.39-1.04-.74-.84-1.5-.62-2.32.04-.17.08-.33.11-.49.44-2.33,1.28-4.5,2.13-6.5,0,0,1.11-2.55,1.35-3.12.03-.07.1-.2.19-.37.54-1,1.1-2.12.79-2.72-.08-.15-.2-.26-.37-.33-.08-.03-.17-.05-.27-.04-.69.06-1.67,1.33-1.68,1.34-.46.6-.99,1.54-.94,2.63v.18c.04.3.07.79-.14.81-.08,0-.3-.04-.8-.46l-.15-.13-.31.38c-.17.21-.34.42-.51.63-.72.93-1.4,1.9-2.08,2.86-1.51,2.12-3.06,4.32-4.99,6.18l-.38.38c-.58.6-1.24,1.28-2.06,1.35-.37.03-.75-.06-1.16-.3-1.61-.92-1.35-2.48-1.12-3.86l.06-.35c.54-3.45,1.82-6.55,3.79-9.19,1.42-1.89,3.07-2.86,5.2-3.05l.2-.02c.92-.06,1.85-.12,2.32.42.75.86,1.37,1.25,1.94,1.19.55-.05.94-.49,1.35-.96l.14-.16c.3-.34.66-.63,1.04-.85.32-.18.62-.35.95-.38.26-.02.5.05.75.21.64.43.52.93.3,1.53-.97,2.71-1.97,5.34-2.97,7.98l-.79,2.07c-.32.83-.55,1.72-.77,2.57l-.21.81c-.1.36-.08.61.05.8.08.11.19.19.33.23.1.03.21.04.35.03.73-.06,1.83-.74,2.13-.99,2.15-1.76,4.23-3.59,6.17-5.31.64-.56,1.24-1.15,1.85-1.74.43-.42.86-.83,1.3-1.24.21-.2.42-.4.63-.61.38-.38.76-.75,1.19-1.09l.16-.14c.19-.17.49-.43.7-.45.14,0,.28.04.33.11ZM139.27,106.5c-.46-.52-1.14-.82-1.72-.77-.08,0-.16.02-.24.04-.86.24-1.64.6-2.25,1.04-2.95,2.12-4.47,5.33-5.65,8.17-.12.3-.26.59-.41.88-.34.7-.69,1.43-.81,2.26-.05.38-.04,1.56.49,1.98.13.11.29.15.46.14.15-.01.31-.08.49-.21,2.96-2.16,4.97-5.16,6.91-8.06.92-1.37,1.86-2.78,2.89-4.08.32-.4.26-.92-.15-1.39Z"/><path class="cls-1" d="M177.66,108.9c.03.08-.02.22-.21.35-.58.41-1.28.65-2.09.72-2.02.18-4.42-.75-6.11-2.36-1.44-1.37-2.1-2-2.83-1.93-.55.05-1.08.51-1.97,1.26-3.18,2.72-5.82,5.97-8.37,9.11l-1.2,1.47c-.09.11-.17.24-.25.37-.2.32-.41.65-.77.69-.21.02-.47-.07-.78-.26-.84-.51-.68-1.14-.53-1.75l.06-.24c1.03-4.68,2.4-8.73,4.21-12.37l.07-.14c.21-.44.47-.98.93-1.02.14-.01.3.03.48.11.29.14.47.3.57.48.18.35,0,.78-.16,1.15-.06.14-.11.27-.15.39l-.33,1.06c-.35,1.14-.7,2.28-1.09,3.41-.25.73-.52,1.47-.81,2.18,0,.01-.58,1.73-.31,2.02l.08.09h.14c.68-.22,1.09-.73,1.48-1.23.16-.2.32-.4.49-.57l2.06-2.08c1.31-1.32,2.63-2.62,4-3.88.93-.86,1.54-1.23,2.09-1.27.86-.08,1.77.68,3.24,2.19,1.66,1.7,3.84,2.61,5.83,2.43.32-.03.64-.09.95-.17.13-.04.25-.11.38-.18.17-.1.34-.19.5-.21.27.04.38.1.41.16Z"/><path class="cls-1" d="M201.75,104.8s.02.05-.03.17c-.46,1.03-1.25,1.76-2.08,2.52l-.56.52c-1.06,1.02-2.13,2.13-3.26,3.4-1.68,1.89-3.29,3.88-4.85,5.82l-1.22,1.52c-.6.74-.78,1.6-.86,2.67-.74,9.95-3.81,18.56-9.12,25.59-.58.76-1.28,1.37-2.04,1.76-.41.21-.8.33-1.18.37-.51.05-.96-.08-1.33-.37-.52-.41-.87-1.13-1-2.08-.31-2.21.2-4.12,1.08-6.33,2.11-5.31,5.36-9.99,8.5-14.51.86-1.24,1.72-2.48,2.56-3.73.14-.2.28-.39.42-.59.66-.9,1.33-1.83,1.16-3.25-.12-1.01-.49-1.78-1.07-2.24-.47-.37-1.05-.53-1.72-.47-.28.02-.57.09-.87.19-.64.21-1.23.51-1.8.8-.39.2-.78.4-1.19.57-.18.07-.36.19-.53.31-.27.18-.55.36-.83.38-.2.02-.51-.02-.95-.53-.65-.75-.31-1.18.3-1.75.12-.11.24-.22.33-.33.55-.62,1.12-1.21,1.69-1.81.86-.91,1.75-1.84,2.54-2.82,2.19-2.72,3.58-5.17,4.35-7.71.21-.67.51-1.68-.46-2.44-.36-.28-.73-.4-1.14-.37-.39.03-.75.22-1.1.39l-.23.11c-2.41,1.15-4,3.11-5.53,4.99l-.63.79c-.32.41-.64.83-1.02,1.18l-.15.15c-.14.15-.29.31-.48.33-.13.01-.28-.05-.45-.18-.33-.25-.4-.55-.22-1,1.71-4.33,4.64-6.83,8.95-7.62.11-.02.23-.04.34-.05.73-.06,1.37.12,1.85.53.59.5.93,1.33.96,2.33.06,2.17-.69,4.04-1.44,5.57-1.28,2.62-2.74,4.89-4.74,7.36l-.29.35.5-.08c.25-.04.48-.07.72-.09,2.62-.23,4.11.67,4.99,3l.33-.03c.01-.17.76-.92,1.08-1.24.17-.17.3-.3.35-.36.5-.62.98-1.24,1.47-1.86l.38-.49c.84-1.08,1.68-2.17,2.56-3.22,1.56-1.87,3.1-3.41,4.71-4.69.29-.23.56-.48.83-.73l.25-.23c.11-.1.77-.45,1.13-.49,0,0,.02-.01.03-.01ZM187.41,123.09l-.32-.18c-4.14,5.16-8.43,10.5-10.95,17.07-.66,1.71-1.1,3.69-1.27,5.73-.06.66.1,1.2.45,1.52.23.21.52.31.83.28.39-.03.78-.27,1.1-.68,4.85-6.14,8.08-13.68,10.17-23.74Z"/><path class="cls-1" d="M218.96,104.85c.16.62-1.46,1.28-1.98,1.49-.93.39-1.83.61-2.77.69-.82.07-1.67.04-2.53-.09-.44-.07-.81-.09-1.13-.06-.89.08-1.4.52-1.75,1.51-.82,2.36-2.31,4.38-4.43,6.02-.53.41-1.25.89-2.09.96-.53.05-1.05-.07-1.59-.36-1.5-.81-1.65-2.25-1.69-3.64-.09-3.66,1.07-6.99,3.44-9.89.57-.7,1.16-1.39,1.77-2.07.48-.54,1.05-.83,1.68-.89.41-.04.85.03,1.33.19,1.08.38,1.78,1.15,2.27,2.51.41,1.14.53,2.23.35,3.33-.1.61-.01,1.03.27,1.31.3.3.78.41,1.56.38.45-.02.9-.05,1.35-.09,1.05-.09,1.96-.24,2.8-.44.39-.1.74-.29,1.07-.47.41-.23.84-.46,1.33-.51.09,0,.18,0,.28,0,.36.02.46.1.47.12ZM207.48,105.93c-.29-.32-.5-.49-.71-.67-.53-.45-1.08-.91-1.68-1.3-.11-.07-.24-.2-.37-.33-.3-.3-.65-.64-1.03-.61-.21.02-.38.15-.53.4-1.84,3.11-3.02,5.89-2.77,9.32.04.57.24,1.01.56,1.27.23.19.51.27.81.25.25-.02.52-.12.8-.29,2.93-1.82,4.15-4.81,4.89-7.21.04-.14.04-.29.03-.48,0-.1-.01-.21,0-.34ZM206.91,101.3c-.18-.14-.38-.21-.6-.19-.53.05-1,.61-1.1.99-.29,1.11.6,1.7,1.47,2.28.24.16.49.32.72.5l.25.19.02-.26c.01-.25.05-.49.08-.73.13-.95.26-1.92-.84-2.79Z"/><path class="cls-1" d="M248.95,127.29c-.17.02-.37,0-.59-.05-1.49-.33-1.92-1.75-2.03-2.35l-.13-.62c-.27-1.31-.55-2.66-.28-3.75.87-3.63-.98-6.97-3.3-10.66-3.54-5.61-7.23-12.27-7.7-19.07-.67-9.63,4.19-16.04,14.43-19.05l.26-.08c.89-.26,1.81-.53,2.75-.7.37-.06.74-.11,1.12-.14l1.85-.14c6.64-.37,14.5-.09,22.35,4.91,5.84,3.71,7.99,9.19,5.48,13.94-2.13,4.04-6.11,6.78-12.52,8.62-3.18.91-6.57,1.83-10.14,2.15-1.97.17-3.83.15-5.71-.05-.21-.02-.4-.03-.58-.01-1.1.1-1.45.92-1.71,1.76l-1.02,3.21c-.75,2.35-1.49,4.69-2.2,7.05-.9,2.98-1.54,5.96.4,9.54.65,1.2.52,2.45.4,3.67-.09.86-.28,1.73-1.12,1.8t0,0ZM256.15,71.51c-2.19.19-4.41.6-6.6,1.22-6.37,1.8-10.43,5.07-12.4,10.01-2.54,6.35-1.27,13.74,3.87,22.57,1.05,1.8,2.13,3.59,3.28,5.48l1.92,3.18.12-.4c.36-1.16.7-2.29,1.03-3.4.79-2.64,1.54-5.13,2.43-7.53.21-.57,2.05-5.54,2.29-6.25l.2-.55c2.11-5.5,4.68-11.97,7.71-18.27l.87-1.8c.33-.68.75-1.42,1.51-1.54.25.09.35.42-.17,1.81l-.07.18c-.62,1.92-1.31,3.81-2,5.69l-.37,1.01c-.63,1.68-1.29,3.35-1.94,5.01-.53,1.35-1.06,2.7-1.58,4.05-.81,2.1-1.59,4.22-2.31,6.37l-.1.29h.35c1.55.06,3.08.02,4.66-.12,2.82-.25,5.37-.77,7.94-1.33,4.09-.89,9.25-2.37,12.86-6.05,2.36-2.41,4.44-5.49,2-10.06-2.22-4.17-6.52-6.16-9.55-7.3-5.33-1.99-10.7-2.77-15.96-2.3Z"/><path class="cls-1" d="M311.11,94.94c.09.14.01.44-.18.68-3.31,4.15-7.52,7.95-12.52,11.32l-.31.22c-.4.29-.81.59-1.3.63-.38.03-.76-.09-1.18-.39-1.03-.74-.84-1.5-.62-2.32.04-.17.08-.33.11-.49.44-2.33,1.28-4.5,2.13-6.5,0,0,1.1-2.55,1.35-3.12.03-.07.1-.2.19-.37.55-1,1.1-2.12.79-2.72-.08-.15-.2-.26-.37-.33-.08-.03-.17-.05-.27-.04-.69.06-1.67,1.33-1.68,1.34-.46.6-.99,1.54-.94,2.63v.18c.04.3.07.79-.14.81-.08,0-.3-.04-.8-.46l-.15-.13-.31.38c-.17.21-.34.42-.5.63-.72.93-1.4,1.9-2.08,2.86-1.51,2.12-3.07,4.32-4.99,6.18l-.38.38c-.59.6-1.25,1.28-2.06,1.35-.37.03-.75-.06-1.16-.3-1.61-.92-1.35-2.48-1.12-3.85l.06-.35c.54-3.45,1.82-6.55,3.79-9.19,1.41-1.89,3.07-2.86,5.2-3.05l.2-.02c.92-.06,1.85-.12,2.32.42.75.86,1.37,1.25,1.94,1.19.55-.05.94-.49,1.35-.96l.14-.16c.3-.34.66-.63,1.04-.85.32-.18.62-.35.95-.38.26-.02.5.05.75.21.64.43.52.93.3,1.53-.97,2.71-1.97,5.34-2.97,7.98l-.79,2.07c-.32.83-.55,1.72-.77,2.57l-.21.81c-.1.36-.08.61.05.8.08.11.19.19.33.23.1.03.22.04.35.03.73-.06,1.83-.74,2.13-.99,2.15-1.76,4.22-3.59,6.17-5.31.64-.56,1.24-1.15,1.85-1.74.43-.42.86-.83,1.3-1.24.22-.2.42-.41.64-.61.38-.38.76-.75,1.19-1.09l.16-.14c.19-.17.49-.43.7-.45.14,0,.27.04.33.11ZM294.83,92.8c-.46-.52-1.14-.82-1.72-.77-.08,0-.16.02-.24.04-.86.24-1.64.6-2.26,1.04-2.95,2.12-4.47,5.33-5.65,8.17-.12.3-.26.59-.41.88-.34.7-.69,1.43-.81,2.26-.05.38-.04,1.56.49,1.98.13.11.29.15.46.14.15-.01.31-.08.49-.21,2.95-2.16,4.96-5.16,6.91-8.06.91-1.36,1.86-2.78,2.89-4.08.32-.4.26-.92-.15-1.39Z"/><path class="cls-1" d="M329.05,59.36c-.77,1.09-1.4,2.3-2.07,3.45-.04.08-.09.15-.13.23-1.65,2.89-3.24,5.85-4.76,8.87-6.72,13.38-11.96,28-14.4,43.21-.86,5.35-1.04,9.86-.57,14.21.02.17.03.35.04.52.04.74.09,1.51.69,2.06.42.38,1.03.58,1.88.61.15,0,.3.07.42.17.18.15.31.38.36.62.13.65-.29.84-.68.88h-.07c-1.96.18-3.27-.62-3.99-2.43-.76-1.91-.76-3.76-.75-5.56v-.57c-.02-16.1,5.36-31.15,10.81-45.08,3.09-7.89,5.97-15.82,11.09-22.5.08-.11.17-.24.25-.38.24-.39.52-.82.93-.86.23-.02.5.08.83.32.93.67.65,1.32.12,2.24Z"/><path class="cls-1" d="M339.25,94.25c.16.62-1.46,1.28-1.98,1.49-.93.39-1.83.61-2.77.69-.82.07-1.67.04-2.53-.09-.44-.07-.81-.09-1.13-.06-.89.08-1.4.52-1.75,1.52-.82,2.36-2.31,4.38-4.43,6.02-.53.41-1.25.89-2.09.96-.53.05-1.05-.07-1.59-.36-1.5-.81-1.66-2.25-1.69-3.64-.09-3.66,1.07-6.99,3.44-9.89.57-.7,1.16-1.39,1.77-2.07.48-.53,1.05-.83,1.68-.89.41-.04.85.03,1.32.19,1.08.38,1.78,1.15,2.27,2.51.41,1.14.53,2.23.35,3.33-.1.61-.01,1.03.27,1.31.3.3.78.41,1.56.38.45-.02.9-.05,1.35-.09,1.05-.09,1.96-.24,2.8-.44.39-.1.73-.29,1.07-.47.42-.23.85-.46,1.34-.51.09,0,.18,0,.28,0,.36.02.46.1.46.12ZM327.76,95.33c-.29-.32-.5-.49-.71-.67-.53-.45-1.08-.91-1.68-1.3-.11-.07-.24-.2-.37-.33-.3-.3-.65-.64-1.03-.61-.21.02-.38.15-.53.4-1.84,3.11-3.02,5.89-2.77,9.32.04.57.24,1.01.56,1.27.23.19.51.27.81.25.25-.02.52-.12.8-.29,2.93-1.82,4.15-4.81,4.89-7.21.04-.14.04-.29.03-.48,0-.1-.01-.21,0-.34ZM327.19,90.7c-.18-.14-.38-.21-.6-.19-.53.05-1,.61-1.1.99-.29,1.11.6,1.7,1.47,2.28.24.16.49.32.72.5l.25.19.02-.26c.01-.25.05-.49.08-.73.13-.95.26-1.92-.84-2.79Z"/><path class="cls-1" d="M377.11,93.4c-1.57,2.93-3.69,5.67-6.13,7.92-1.19,1.09-2.46,2.05-3.8,2.86l-.19.12c-1.17.71-2.95,1.79-4.75,1.94-1.16.1-2.14-.18-3.01-.87-1.76-1.4-1.69-3.01-1.46-4.53.11-.75.49-1.38.85-2,.15-.26.31-.51.44-.78.37-.71.71-1.67.3-2.14-.18-.21-.46-.3-.83-.27-.16.01-.35.05-.57.12-1.22.37-2.01,1.2-2.77,2-.46.48-.94.98-1.5,1.37-.3.21-.59.43-.87.65-.79.61-1.61,1.24-2.67,1.52-.25.07-.49.11-.71.13-.54.05-.96-.06-1.26-.31-.39-.33-.61-.94-.64-1.81-.06-1.84.64-3.39,1.32-4.89.34-.76.68-1.46,1.01-2.17.25-.52.5-1.04.74-1.57.15-.33.34-.64.53-.95.25-.41.51-.84.69-1.31.31-.84.34-1.25.11-1.46-.11-.1-.29-.22-.57-.19-.49.04-1.01.49-1.11.58-1.37,1.22-2.56,2.71-3.71,4.15-.43.54-.86,1.08-1.3,1.6-1.89,2.25-3.86,4.52-5.84,6.74-.29.32-.61.62-1.02.66-.08,0-.17,0-.26-.01-.51-.1-.94-.6-1.09-1.04-.17-.49-.12-.97-.04-1.46.44-2.8,1.32-5.4,2.61-7.72.16-.29.31-.54.56-.69.11-.07.24-.11.38-.13.12-.01.31,0,.49.1.33.18.49.54.52.8.05.33-.05.63-.13.93l-1.59,5.39c-.06.2-.03.5.13.69.09.11.21.17.34.18.22-.03.29-.1.35-.17,1.36-1.49,2.67-3.01,3.99-4.53,2.16-2.5,4.4-5.09,6.79-7.47.36-.36.81-.74,1.34-.78.14-.01.29,0,.44.04.77.19,1.34,1.06,1.39,1.75.06.78-.32,1.62-.65,2.36-.12.27-.24.52-.33.77-.45,1.18-.93,2.33-1.41,3.49l-.21.52c-.54,1.31-1.1,2.61-1.72,4.05l-1.1,2.55.41-.12c1.79-.53,2.95-1.34,4.08-2.13.48-.33.94-.66,1.43-.94.45-.26.87-.56,1.29-.85.91-.64,1.85-1.3,3.06-1.55.16-.04.32-.06.47-.07.39-.03.91,0,1.23.3.3.29.39.79.26,1.44-.2,1.04-.51,2.06-.81,3.05-.24.77-.48,1.55-.66,2.35-.03.14-.08.28-.12.42-.22.74-.5,1.65.59,2.55.61.5,1.28.71,2.04.65.5-.04.97-.2,1.38-.34,4.01-1.33,6.74-3.99,8.89-6.42,1.56-1.76,2.65-3.85,3.43-5.48.5-1.03.92-1.42,1.16-1.45.04,0,.11-.01.22.15.11.16.19.58-.43,1.74Z"/><path class="cls-1" d="M395.03,89.83c.05.53-.75,1.03-1.05,1.33-1.14,1.15-2.32,2.28-3.57,3.34-2.53,2.14-5.39,3.99-8.73,5.15-1.42.49-2.94.88-4.63-.35-1.71-1.26-1.8-2.87-1.55-4.27.88-4.99,2.89-9.39,5.84-13.25.36-.48.76-1.26,1.76-.6,1.04.69.41,1.34.14,1.87-1.94,3.78-3.89,7.56-5.17,11.69-.34,1.1-1.27,2.43.07,3.56,1.42,1.19,3.07.5,4.32.07,2.67-.9,4.88-2.45,6.86-4.18.61-.53,4.83-5.26,5.51-4.81.11.07.18.23.2.45ZM383.55,77.45c-.48-1.39.2-1.97,1.42-2.16.84-.13,1.54.15,1.96,1.25.18,1.15-.59,1.68-1.74,1.89-.77.14-1.35-.11-1.65-.98Z"/><path class="cls-1" d="M423.63,86.8c.09.25-.13.54-.33.79-.09.12-.18.23-.24.34-2.55,4.83-6.32,8.92-11.53,12.51-.54.37-1.21.59-2.12.69h-.09c-.89.09-1.61-.08-2.12-.5-.53-.43-.84-1.11-.91-2.02-.14-1.65.51-2.98,1.14-4.27l.43-.9c.21-.44.42-.87.57-1.34l.06-.16c.12-.32.29-.75-.23-1.2-.29-.25-.64-.36-1.04-.32-.16.01-.32.05-.49.11-1.35.46-2.75.93-4.07,1.53-1.76.78-3.31,1.85-4.82,2.87-.66.45-1.32.9-2,1.33l-.19.12c-.31.21-.63.42-1,.45-.33.03-.67-.09-1.05-.36-.8-.58-.72-1.2-.62-1.85l.03-.21c.37-2.98,1.22-5.7,2.54-8.1l.09-.17c.14-.28.3-.6.61-.62.1,0,.22.01.36.07.24.09.4.23.51.41.4.66-.02,1.81-.27,2.5-.07.17-.12.32-.15.44l-1.45,5.02c-.04.13-.15.52.16.75.13.1.3.14.51.12.47-.04,1.11-.36,1.33-.5.3-.19.57-.42.84-.65.31-.26.62-.52.98-.72,1.11-.63,2.23-1.26,3.38-1.85,1.42-.73,2.73-1.23,4.01-1.53.19-.04.38-.07.57-.09.91-.08,1.73.17,2.29.72.62.59.87,1.46.7,2.43-.21,1.24-.6,2.44-.96,3.6-.21.65-.41,1.3-.6,1.97l-.07.22c-.13.39-.31.92.2,1.36.29.25.62.36,1,.33.3-.03.59-.14.84-.25,3.27-1.31,5.46-3.7,7.27-5.84,1.51-1.79,3.39-4.01,4.5-6.63l.06-.15c.14-.36.34-.85.66-.88.08,0,.18.02.29.08.23.13.37.27.42.39Z"/><path class="cls-1" d="M441.71,85.23c.16.62-1.46,1.28-1.98,1.49-.93.39-1.83.61-2.77.69-.82.07-1.67.04-2.53-.09-.44-.07-.81-.09-1.13-.06-.89.08-1.4.52-1.75,1.52-.82,2.36-2.31,4.38-4.43,6.02-.53.41-1.25.89-2.09.96-.53.05-1.05-.07-1.59-.36-1.5-.81-1.66-2.25-1.69-3.64-.09-3.66,1.07-6.99,3.44-9.89.57-.7,1.16-1.39,1.77-2.07.48-.54,1.05-.83,1.68-.89.41-.04.85.03,1.32.19,1.08.38,1.78,1.15,2.27,2.51.41,1.14.53,2.23.35,3.33-.1.61-.01,1.03.27,1.31.3.3.78.41,1.56.38.45-.02.9-.05,1.35-.09,1.05-.09,1.96-.24,2.8-.44.39-.1.73-.29,1.07-.47.41-.23.84-.46,1.33-.51.09,0,.18,0,.28,0,.36.02.46.1.46.12ZM430.22,86.31c-.29-.32-.5-.49-.71-.67-.53-.45-1.08-.91-1.68-1.3-.11-.07-.24-.2-.37-.33-.3-.3-.65-.64-1.03-.61-.21.02-.38.15-.53.4-1.85,3.11-3.02,5.89-2.77,9.32.04.57.24,1.01.56,1.27.23.19.51.27.81.25.25-.02.52-.12.8-.29,2.93-1.82,4.15-4.81,4.89-7.21.04-.14.04-.29.03-.48,0-.1-.01-.21,0-.34ZM429.65,81.68c-.18-.14-.38-.21-.6-.19-.53.05-1,.61-1.1.99-.29,1.11.6,1.7,1.47,2.28.24.16.49.32.72.5l.25.19.02-.26c.01-.25.05-.49.08-.73.13-.95.26-1.92-.84-2.79Z"/><path class="cls-1" d="M175.73,216.68c.85-.24,1.67-.72,2.86-3.65l7.09-17.52c.2-.51.17-.89-.07-1.36l-.2-.44,1.74-.75,8.28,20.11c1.19,2.9,1.91,3.37,2.59,3.61v.38h-4.3v-.38c.95-.24.92-.72-.27-3.61l-2.11-5.11h-10.16l-2.05,5.08c-.89,2.15-.89,3.41.31,3.65v.38h-3.72v-.38ZM191.14,207.47l-4.94-11.96-4.81,11.96h9.75Z"/><path class="cls-1" d="M201.7,195.68v16.43c0,3.55.78,4.3,2.05,4.57v.38h-3.92v-.38c.95-.24,1.36-.82,1.36-3.95v-15.2c0-3.14-.55-3.72-1.77-3.95v-.38h2.83l15.48,20.76v-15.82c0-3.54-.78-4.29-2.05-4.57v-.38h3.92v.38c-.95.24-1.36.82-1.36,3.95v19.81h-.44l-16.09-21.65Z"/><path class="cls-1" d="M222.83,205.15c0-7.23,4.81-12.24,12.03-12.24,5.76,0,12,3.95,12,12.31s-6.27,12.17-12,12.17-12.03-3.89-12.03-12.24ZM235.75,216.74c5.73,0,9.31-3.95,9.31-9.75,0-6.95-4.81-13.43-11.18-13.43-5.76,0-9.2,4.12-9.2,9.75,0,6.89,4.67,13.43,11.08,13.43Z"/><path class="cls-1" d="M250.34,214.97l-.24-4.36.34-.03c1.16,3.27,3.27,6.31,8.28,6.31,3.1,0,5.62-2.05,5.62-4.77,0-3.48-3.92-5.08-6.95-6.27-4.6-1.81-6.72-3.48-6.72-6.72,0-3.75,3.17-6.17,7.81-6.17,3.75,0,5.9,1.16,6.75,1.7l.14,3.44-.27.07c-1.12-2.35-2.97-4.7-7.5-4.7-2.79,0-5.35,1.57-5.35,4.74,0,3.34,3.58,4.74,6.71,6.03,4.06,1.67,7.02,3.17,7.02,6.75,0,3.78-3.58,6.41-7.74,6.41-3.65,0-6.48-1.4-7.91-2.42Z"/><path class="cls-1" d="M202.9,190.15c-.11-1.76,1.34-2.95,3.81-2.95,1.23,0,2.13.26,3.3.58.9.26,1.79.52,2.69.52.84,0,1.34-.2,1.51-1.13h2.58c.06,1.82-1.18,2.81-3.75,2.81-1.18,0-2.18-.23-3.41-.55-1.07-.29-1.85-.55-2.63-.55-.9,0-1.34.49-1.46,1.27h-2.63Z"/></g></svg>